PathFileType	4	(X/Y/Z)	C:/Users/opensim2020/Desktop/walking_exp_matlab/subject03_walking14_straight_04.trc																																																																																																																																											
DataRate	CameraRate	NumFrames	NumMarkers	Units	OrigDataRate	OrigDataStartFrame	OrigNumFrames																																																																																																																																							
100	100	6	47	mm	100	2332	177																																																																																																																																							
Frame#	Time	LFHD			RFHD			LBHD			RBHD			C7			T10			CLAV			STRN			RBAK			LSHO			LUPA			LELB			LFRM			LWRA			LWRB			LFIN			RSHO			RUPA			RELB			RFRM			RWRA			RWRB			RFIN			LASI			RASI			LPSI			RPSI			LTHI			LKNE			LTIB			LANK			LHEE			LTOE			RTHI			RKNE			RTIB			RANK			RHEE			RTOE			*39			*40			*41			*42			*43			*44			*45			*46		
		X1	Y1	Z1	X2	Y2	Z2	X3	Y3	Z3	X4	Y4	Z4	X5	Y5	Z5	X6	Y6	Z6	X7	Y7	Z7	X8	Y8	Z8	X9	Y9	Z9	X10	Y10	Z10	X11	Y11	Z11	X12	Y12	Z12	X13	Y13	Z13	X14	Y14	Z14	X15	Y15	Z15	X16	Y16	Z16	X17	Y17	Z17	X18	Y18	Z18	X19	Y19	Z19	X20	Y20	Z20	X21	Y21	Z21	X22	Y22	Z22	X23	Y23	Z23	X24	Y24	Z24	X25	Y25	Z25	X26	Y26	Z26	X27	Y27	Z27	X28	Y28	Z28	X29	Y29	Z29	X30	Y30	Z30	X31	Y31	Z31	X32	Y32	Z32	X33	Y33	Z33	X34	Y34	Z34	X35	Y35	Z35	X36	Y36	Z36	X37	Y37	Z37	X38	Y38	Z38	X39	Y39	Z39	X40	Y40	Z40	X41	Y41	Z41	X42	Y42	Z42	X43	Y43	Z43	X44	Y44	Z44	X45	Y45	Z45	X46	Y46	Z46	X47	Y47	Z47
																																																																																																																																														
155	1.54	922.92883	1597.0885	919.9762	911.22571	1606.85706	1052.07312	798.92517	1543.06226	917.72797	792.81903	1552.65771	1047.5166	781.4046	1383.48401	978.3421	769.53857	1068.75208	976.35846	908.26904	1316.63123	988.69739	963.48053	1154.89563	990.08301	733.23413	1204.9906	1071.07776	869.6134	1350.55713	829.05188	848.66687	1154.96106	751.96906	842.88599	1032.72864	734.42035	844.93958	901.71747	727.25568	830.48163	779.5957	749.25763	820.21075	793.85614	694.79132	803.70709	708.22998	699.0918	845.76013	1340.06567	1143.99377	874.30444	1124.63171	1225.98633	918.49005	1025.56934	1242.27075	1010.19781	928.27948	1232.16882	1093.82471	883.22235	1190.1759	1071.91638	849.5694	1225.57031	1137.35535	819.45557	1215.86279	961.57495	918.39191	885.77106	923.58655	910.97839	1119.34753	794.38208	931.86206	904.69098	771.70728	938.87366	1053.34338	988.94202	625.88623	833.48236	1067.68848	472.34137	880.77771	1053.93127	271.3017	878.11981	1062.28577	63.60627	921.56812	1021.19855	30.95889	957.37469	1213.10681	31.51929	945.60425	822.21857	621.38043	1162.65955	804.01233	440.38174	1145.74207	654.78015	310.72818	1132.23108	507.03928	155.84596	1073.37488	463.78479	165.21808	1016.23798	580.26746	28.74153	1045.65247	NaN	NaN	NaN	832.64862	1652.42566	961.93353	NaN	NaN	NaN	NaN	NaN	NaN	NaN	NaN	NaN	NaN	NaN	NaN	NaN	NaN	NaN	NaN	NaN	NaN
156	1.55	934.60962	1596.81189	918.66235	922.75153	1606.79285	1050.71167	810.87671	1542.56262	916.24695	804.52588	1552.17407	1046.07971	794.151	1383.11914	976.67999	782.6192	1068.35889	975.34875	920.88702	1316.66406	987.54877	976.6897	1155.24646	989.18927	746.10223	1204.53418	1069.68835	882.70471	1350.67468	828.08392	862.51581	1155.31104	750.96429	856.77899	1032.95349	733.48499	860.40936	902.12488	726.32855	847.21942	779.91144	749.02448	836.31061	793.755	694.55835	821.77832	707.90869	699.22992	858.10022	1340.19995	1142.66113	886.14374	1124.36243	1224.23999	929.81152	1024.84949	1240.33972	1019.74042	925.72559	1230.60449	1102.58154	878.75128	1188.85632	1080.01318	845.87427	1224.59546	1144.62622	814.00873	1214.78552	975.40265	919.98804	885.32764	937.10492	910.68506	1118.03784	807.74811	932.8103	904.59711	785.27765	937.79303	1053.11865	1006.70459	628.61615	833.28015	1082.91687	473.15628	880.99017	1063.64563	271.91833	877.4892	1062.97437	64.46542	921.67908	1021.62122	31.20629	956.83545	1213.96045	30.63092	946.63745	840.60522	619.22064	1163.85437	826.6593	437.57043	1149.05334	674.36273	312.6058	1134.8208	522.9201	162.1628	1075.59912	481.18964	175.76755	1018.11932	582.36047	28.60791	1044.63452	NaN	NaN	NaN	844.14954	1651.9873	960.6272	NaN	NaN	NaN	NaN	NaN	NaN	NaN	NaN	NaN	NaN	NaN	NaN	NaN	NaN	NaN	NaN	NaN	NaN
157	1.56	946.14282	1596.89233	917.24475	934.26453	1606.61462	1049.36157	822.43982	1542.06238	915.21838	816.2832	1551.64734	1045.06714	806.30048	1382.55396	975.38379	795.51489	1067.9624	974.49469	933.38611	1316.49658	986.54553	989.71381	1155.35229	988.33398	758.97595	1203.86365	1068.42456	895.58319	1350.72693	827.20563	876.42297	1155.68176	749.81476	870.62561	1033.07678	732.48975	874.86194	901.93799	726.07861	864.4715	780.0918	748.66913	852.84888	793.55609	694.27374	840.21741	707.45837	699.59625	870.29395	1340.3291	1141.5647	898	1124.08826	1222.64258	941.08545	1024.0946	1238.4552	1029.24219	923.23041	1229.04907	1111.12915	874.20422	1187.67908	1087.83228	842.00208	1223.62305	1151.49109	808.21155	1213.68811	988.89697	921.54297	884.56927	950.09625	910.28735	1116.8634	820.60321	933.39563	904.53943	798.37384	936.57471	1052.98157	1025.4187	631.28491	832.85059	1096.80969	473.35294	880.84259	1072.52893	272.08664	877.30194	1063.51111	64.87217	921.55304	1021.91443	31.45518	956.43921	1214.73474	30.50434	946.78918	859.15668	616.84479	1164.77185	849.55682	435.14026	1151.05652	695.77448	313.65176	1137.15833	540.51752	167.50128	1078.48792	499.6662	186.92131	1021.90228	585.19543	30.00307	1044.46912	NaN	NaN	NaN	855.72766	1651.66394	958.71655	NaN	NaN	NaN	NaN	NaN	NaN	NaN	NaN	NaN	NaN	NaN	NaN	NaN	NaN	NaN	NaN	NaN	NaN
158	1.57	957.51105	1596.18994	916.03375	945.76221	1606.38306	1048.03625	833.96698	1541.33044	914.06335	827.92383	1551.08313	1043.93091	818.04657	1381.79248	974.48639	807.95605	1067.57959	974.06738	945.6189	1316.25513	985.57703	1002.53326	1155.22791	987.53473	771.40631	1203.19128	1067.29309	908.31323	1350.65393	826.38202	889.93433	1155.87012	748.84296	884.63477	1033.29187	731.3042	890.90784	902.37512	724.81659	882.27277	780.32489	748.17548	869.90088	793.27252	694.05322	859.01599	706.81622	700.17542	882.48315	1340.12061	1140.47205	909.79169	1123.71375	1221.21741	952.3667	1023.23694	1236.61987	1038.59619	920.41302	1227.61316	1119.41614	869.32489	1186.28687	1095.44983	838.05188	1222.66357	1158.15417	802.11066	1212.52222	1002.0163	922.79492	883.50092	962.69995	909.68677	1115.52771	833.17413	933.54926	904.51349	811.08167	935.09741	1052.65747	1043.11719	633.35303	832.08923	1109.37292	472.95776	880.50378	1079.81567	271.76068	877.30701	1063.9541	65.03876	921.58441	1022.16284	31.67253	956.21698	1215.16174	30.30422	947.11438	877.54883	614.26532	1165.35278	872.87653	432.56607	1152.31958	718.6311	313.68863	1139.15393	558.65881	173.29619	1081.6676	518.70801	197.97684	1026.51965	591.03455	34.2504	1043.6438	NaN	NaN	NaN	866.91125	1651.12122	957.39581	NaN	NaN	NaN	NaN	NaN	NaN	NaN	NaN	NaN	NaN	NaN	NaN	NaN	NaN	NaN	NaN	NaN	NaN
159	1.58	968.6319	1596.01819	914.71887	957.20477	1606.22937	1046.73889	845.27618	1540.62085	913.04083	839.50665	1550.64758	1042.91675	829.66241	1380.85461	973.41058	820.71069	1067.04297	973.09491	957.57416	1315.98279	984.75574	1014.88507	1155.15576	986.95197	783.52979	1202.63501	1066.40564	920.70441	1350.45056	825.68494	903.36713	1155.96387	747.74054	898.19635	1033.23657	730.11865	906.61926	902.44995	723.81946	901.95209	780.75336	747.44183	887.35571	792.83777	693.80853	878.7536	706.31519	700.34918	894.59637	1339.68469	1139.34912	921.37225	1123.16907	1219.979	963.52319	1022.19208	1235.25012	1047.89111	917.47705	1226.30762	1127.51343	864.22607	1184.75562	1103.06335	833.99548	1221.74561	1164.45972	795.79926	1211.14197	1014.73651	923.69861	882.48639	975.03864	909.00739	1114.64246	845.66193	933.04565	904.15063	823.36914	933.53113	1052.18347	1057.83313	634.26373	831.25525	1120.48132	471.88055	879.9541	1085.85083	271.44308	877.22693	1064.70703	65.21243	921.82074	1022.42883	31.9084	956.20685	1215.50488	30.09418	947.38586	895.60785	611.63654	1165.4292	896.41901	429.99582	1153.10767	742.72156	312.82465	1141.72363	577.13019	179.79333	1083.76563	537.7948	208.02034	1029.86133	601.80182	40.62438	1045.10535	NaN	NaN	NaN	877.90955	1650.44177	956.35254	NaN	NaN	NaN	NaN	NaN	NaN	NaN	NaN	NaN	NaN	NaN	NaN	NaN	NaN	NaN	NaN	NaN	NaN
160	1.59	980.12384	1595.56213	913.37805	968.55981	1606.18713	1045.42603	856.54327	1540.14673	912.14056	850.94049	1550.35596	1042.02917	840.78882	1380.4231	972.46246	833.13312	1066.55713	972.33368	969.40656	1315.80115	984.03766	1026.97839	1155.00989	986.50513	795.21954	1202.3241	1065.79016	932.80231	1350.18689	824.86627	916.3902	1155.81531	746.81543	911.86365	1033.1156	728.74646	922.2016	902.32983	722.9436	921.17688	780.6673	747.07135	905.17908	792.28278	693.56372	898.79199	705.69171	700.70959	906.466	1339.25134	1138.61133	932.88007	1122.4425	1218.95801	974.71582	1021.00568	1234.1405	1057.20874	914.41974	1225.10815	1135.78552	859.26166	1183.43372	1110.64392	829.88953	1220.8584	1170.73718	789.46759	1209.57971	1027.146	924.26129	881.54974	989.44128	909.27643	1112.57361	857.96802	932.42548	903.599	835.36389	931.76514	1051.3678	1068.32141	633.85614	830.44971	1129.72058	470.09396	879.44043	1090.98621	270.93735	877.15808	1065.77588	65.22986	922.1076	1022.40601	32.20189	955.93982	1215.73694	29.98583	947.6228	913.17383	609.11035	1164.53015	920.6532	427.4635	1153.69775	767.20697	312.03107	1144.21667	596.08478	187.09616	1084.78882	557.40289	215.96002	1030.15125	618.06805	47.00436	1049.21362	NaN	NaN	NaN	888.9472	1650.06567	955.21814	NaN	NaN	NaN	NaN	NaN	NaN	NaN	NaN	NaN	NaN	NaN	NaN	NaN	NaN	NaN	NaN	NaN	NaN
